<?xml version="1.0" encoding="UTF-8" standalone="no"?>
<!-- Created with Inkscape (http://www.inkscape.org/) -->

<svg
   xmlns:dc="http://purl.org/dc/elements/1.1/"
   xmlns:cc="http://creativecommons.org/ns#"
   xmlns:rdf="http://www.w3.org/1999/02/22-rdf-syntax-ns#"
   xmlns:svg="http://www.w3.org/2000/svg"
   xmlns="http://www.w3.org/2000/svg"
   xmlns:sodipodi="http://sodipodi.sourceforge.net/DTD/sodipodi-0.dtd"
   xmlns:inkscape="http://www.inkscape.org/namespaces/inkscape"
   width="1024"
   height="500"
   viewBox="0 0 270.93334 132.29167"
   version="1.1"
   id="svg8"
   inkscape:version="0.92.5 (2060ec1f9f, 2020-04-08)"
   sodipodi:docname="sun-earth.svg"
   inkscape:export-filename="/home/trent/trent/dev/suncycle-app/assets/sun-earth-feat.png"
   inkscape:export-xdpi="95.999992"
   inkscape:export-ydpi="95.999992">
  <defs
     id="defs2" />
  <sodipodi:namedview
     id="base"
     pagecolor="#ffffff"
     bordercolor="#666666"
     borderopacity="1.0"
     inkscape:pageopacity="0.0"
     inkscape:pageshadow="2"
     inkscape:zoom="0.7"
     inkscape:cx="243.51711"
     inkscape:cy="424.38879"
     inkscape:document-units="mm"
     inkscape:current-layer="layer1"
     showgrid="false"
     fit-margin-top="0"
     fit-margin-left="0"
     fit-margin-right="0"
     fit-margin-bottom="0"
     inkscape:window-width="2560"
     inkscape:window-height="1080"
     inkscape:window-x="0"
     inkscape:window-y="0"
     inkscape:window-maximized="0"
     units="px" />
  <metadata
     id="metadata5">
    <rdf:RDF>
      <cc:Work
         rdf:about="">
        <dc:format>image/svg+xml</dc:format>
        <dc:type
           rdf:resource="http://purl.org/dc/dcmitype/StillImage" />
        <dc:title></dc:title>
      </cc:Work>
    </rdf:RDF>
  </metadata>
  <g
     inkscape:label="Layer 1"
     inkscape:groupmode="layer"
     id="layer1"
     transform="translate(-5.2916674,-126.78273)">
    <ellipse
       style="fill:#1f8bff;fill-opacity:1;stroke:#000000;stroke-width:0.5;stroke-linejoin:round;stroke-miterlimit:4;stroke-dasharray:none;stroke-dashoffset:0;stroke-opacity:1"
       id="path817"
       cx="156.3996"
       cy="229.11847"
       rx="29.65439"
       ry="29.655472" />
    <path
       style="fill:#00ae2b;fill-opacity:1;stroke:#000000;stroke-width:0.26458332px;stroke-linecap:butt;stroke-linejoin:miter;stroke-opacity:1"
       d="m 139.81323,219.31709 c 9.29841,-2.01054 1.75916,-6.03162 9.54973,-2.01054 7.79055,4.02108 6.0314,6.03163 4.52355,8.79612 -1.50785,2.76449 -9.29841,1.00527 -5.78009,8.04215 3.51831,7.03691 -1.25654,0.75396 -5.27748,-0.50263 -4.02093,-1.25659 -6.0314,2.7645 -6.0314,2.7645 0,0 -0.25132,9.55006 5.52878,9.29875 5.7801,-0.25132 13.57066,3.26712 13.57066,3.26712 0,0 2.26177,6.03163 0.5026,7.79085 -1.75915,1.75922 -3.76962,2.01054 -3.76962,2.01054 0,0 -46.99467,-32.41996 -12.81673,-39.45686 z"
       id="path859"
       inkscape:connector-curvature="0" />
    <path
       style="fill:#00ae2b;fill-opacity:1;stroke:#000000;stroke-width:0.26458332px;stroke-linecap:butt;stroke-linejoin:miter;stroke-opacity:1"
       d="m 155.89698,212.53152 c 13.31934,6.03162 16.33504,11.5606 18.34551,15.07905 2.01047,3.51844 3.26701,11.81193 5.52879,13.57116 2.26176,1.75922 6.03139,-0.75396 5.78008,-9.55008 -0.2513,-8.79611 -5.27748,-23.87517 -13.31934,-26.38834 -8.04187,-2.51318 -16.33504,7.28821 -16.33504,7.28821 z"
       id="path861"
       inkscape:connector-curvature="0" />
    <ellipse
       style="fill:#ffe42f;fill-opacity:1;stroke:#000000;stroke-width:0;stroke-linejoin:round;stroke-miterlimit:4;stroke-dasharray:none;stroke-dashoffset:0;stroke-opacity:1"
       id="path866"
       cx="104.00179"
       cy="169.68187"
       rx="41.591541"
       ry="41.593056" />
    <path
       style="fill:#000000;fill-opacity:0.40308371;stroke:none;stroke-width:0.26458332px;stroke-linecap:butt;stroke-linejoin:miter;stroke-opacity:1"
       d="m 152.62996,258.77395 c 0,0 -21.1099,-33.42524 2.01047,-52.27405 2.21176,-1.80315 3.78342,-3.38801 5.16428,-4.2755 7.13018,-4.58263 18.93763,5.57117 23.12257,13.8706 3.63175,7.20237 2.99211,13.46514 2.99211,13.46514 0,0 0.69653,12.55917 -8.93246,21.21122 -3.19664,2.87233 -7.72532,5.74981 -13.60499,7.1586 -3.21017,0.76918 -7.10969,0.81388 -10.75198,0.84399"
       id="path868"
       inkscape:connector-curvature="0"
       sodipodi:nodetypes="cssscssc" />
  </g>
</svg>
